<?xml version="1.0" standalone="no"?>
<!DOCTYPE svg PUBLIC "-//W3C//DTD SVG 20010904//EN"
 "http://www.w3.org/TR/2001/REC-SVG-20010904/DTD/svg10.dtd">
<svg version="1.0" xmlns="http://www.w3.org/2000/svg"
 width="2083.000000pt" height="2083.000000pt" viewBox="0 0 2083.000000 2083.000000"
 preserveAspectRatio="xMidYMid meet">
<metadata>
Created by potrace 1.11, written by Peter Selinger 2001-2013
</metadata>
<g transform="translate(0.000000,2083.000000) scale(0.100000,-0.100000)"
fill="#000000" stroke="none">
<path d="M16517 15984 c-1 -1 -67 -4 -147 -8 -80 -3 -156 -8 -170 -10 -14 -3
-52 -7 -85 -10 -94 -10 -136 -16 -190 -26 -27 -5 -66 -11 -85 -14 -28 -4 -158
-33 -280 -61 -143 -34 -427 -136 -596 -215 -47 -22 -87 -40 -89 -40 -7 0 -224
-121 -310 -173 -203 -123 -450 -310 -611 -462 -145 -136 -280 -275 -354 -364
-25 -29 -53 -63 -64 -75 -49 -57 -151 -192 -218 -291 -237 -348 -417 -735
-522 -1125 -31 -114 -72 -306 -82 -375 -3 -27 -8 -52 -9 -56 -2 -3 -7 -39 -11
-80 -3 -40 -8 -77 -10 -80 -2 -3 -6 -48 -9 -100 -4 -52 -8 -112 -10 -134 -5
-54 -5 -414 0 -490 7 -99 16 -208 20 -243 34 -266 63 -408 132 -652 141 -499
415 -998 782 -1420 249 -288 535 -541 836 -741 83 -55 155 -103 161 -107 5 -4
26 -15 45 -26 19 -10 49 -27 68 -38 248 -142 581 -272 897 -352 120 -30 186
-44 339 -70 99 -16 276 -36 385 -42 90 -5 462 -4 540 1 159 10 340 33 475 60
39 8 84 17 102 20 18 3 43 9 57 15 15 5 26 7 26 5 0 -2 11 0 26 5 14 6 37 12
52 15 75 13 334 102 497 170 155 64 541 266 565 295 3 3 34 23 68 44 86 52
294 209 417 315 215 184 451 443 621 681 258 360 492 827 628 1254 l23 74
-2618 0 -2619 0 0 -406 0 -407 1961 0 c1078 0 1963 -3 1965 -6 2 -4 -12 -31
-32 -60 -143 -210 -385 -444 -654 -631 -206 -143 -491 -302 -675 -377 -44 -17
-89 -36 -100 -41 -118 -53 -412 -127 -655 -164 -199 -31 -650 -28 -859 5 -63
9 -81 12 -153 24 -77 13 -286 68 -390 104 -437 147 -820 392 -1183 756 -396
397 -647 807 -789 1290 -84 286 -120 555 -120 890 -1 213 9 348 35 515 17 112
20 125 24 140 2 8 7 29 9 45 3 17 19 80 36 140 17 61 32 117 34 125 7 26 77
212 103 270 118 268 284 533 463 741 438 509 911 827 1493 1003 65 20 132 38
150 41 17 3 48 10 67 15 41 11 204 38 275 46 28 3 64 7 80 10 56 10 519 12
600 4 157 -17 295 -36 325 -45 8 -2 31 -7 50 -10 87 -14 337 -87 455 -133 411
-158 775 -398 1095 -721 64 -64 133 -138 155 -166 22 -27 46 -56 53 -64 50
-52 215 -297 286 -421 93 -166 206 -423 281 -641 l27 -76 429 0 c320 0 429 2
429 11 0 7 -12 52 -26 101 -14 50 -27 97 -29 105 -9 42 -93 282 -142 405 -55
139 -179 401 -249 525 -231 410 -561 805 -904 1084 -41 33 -80 65 -87 71 -28
23 -43 34 -143 106 -104 74 -295 199 -305 199 -3 0 -24 12 -46 26 -170 107
-679 320 -835 350 -12 2 -40 10 -63 19 -23 8 -44 14 -46 14 -3 0 -18 2 -33 5
-15 4 -36 8 -47 10 -11 3 -53 12 -93 20 -40 9 -87 18 -105 20 -33 5 -93 14
-137 22 -14 2 -52 6 -85 10 -33 3 -71 7 -85 10 -45 7 -476 23 -483 18z"/>
<path d="M405 12020 c0 -2526 3 -3800 10 -3801 5 -1 184 -2 398 -3 340 -1 387
0 388 14 0 8 1 466 1 1018 l1 1002 891 1 c490 0 909 2 931 4 22 2 76 6 120 9
44 3 89 8 100 10 11 2 43 7 70 10 28 4 57 9 65 11 8 2 31 7 50 10 19 3 64 13
100 21 36 9 73 17 82 19 84 18 358 108 443 145 22 10 69 30 105 45 416 174
798 450 1046 756 276 338 466 792 519 1234 3 28 8 59 10 70 27 130 27 716 1
875 -3 14 -7 45 -10 70 -57 444 -241 887 -504 1215 -262 326 -607 575 -1092
788 -282 123 -646 225 -900 252 -30 4 -68 9 -85 12 -16 4 -640 8 -1385 10
l-1355 4 0 -3801z m2695 2997 c14 -3 59 -11 100 -16 144 -20 353 -73 470 -118
8 -4 17 -7 20 -8 47 -16 236 -100 280 -123 118 -64 162 -91 246 -151 336 -242
550 -557 655 -964 12 -45 23 -91 24 -102 27 -155 31 -185 41 -295 11 -132 5
-405 -11 -510 -2 -14 -7 -50 -11 -80 -12 -92 -6 -66 -45 -225 -71 -286 -225
-562 -428 -766 -275 -274 -689 -484 -1136 -574 -118 -23 -149 -28 -270 -41
-77 -8 -1809 -9 -1822 -1 -6 4 -10 718 -10 1995 l0 1989 936 -2 c515 -1 947
-5 961 -8z"/>
<path d="M6529 15800 c-1 -18 0 -7561 0 -7575 1 -7 138 -10 399 -10 l397 0 0
3403 0 3402 55 1 c362 3 1733 -1 1790 -6 288 -24 552 -93 817 -212 419 -189
707 -452 887 -810 43 -87 110 -256 120 -304 3 -13 12 -51 20 -85 8 -34 17 -74
20 -90 3 -16 8 -40 11 -54 36 -176 41 -566 10 -800 -19 -142 -95 -424 -133
-496 -6 -11 -26 -50 -45 -89 -164 -335 -416 -581 -787 -769 -119 -61 -314
-140 -410 -167 -25 -7 -49 -14 -55 -15 -5 -2 -59 -15 -120 -29 -229 -54 -295
-57 -1122 -57 -414 -1 -753 -3 -753 -6 0 -10 816 -814 1317 -1298 56 -55 202
-196 324 -314 122 -118 253 -245 291 -282 38 -36 180 -174 316 -306 136 -132
281 -272 322 -312 41 -39 128 -124 193 -188 l118 -117 585 0 c321 0 584 0 584
1 0 1 -198 195 -286 280 -65 63 -435 421 -639 619 -46 44 -187 181 -315 305
-128 124 -271 263 -319 309 -47 46 -198 192 -335 325 l-248 241 48 8 c41 6
168 30 224 42 149 32 380 119 581 219 481 242 851 557 1096 934 185 286 320
659 369 1022 2 19 7 46 9 60 27 147 27 758 1 897 -2 11 -7 44 -11 74 -5 43
-29 164 -50 259 -72 324 -252 697 -458 950 -383 470 -997 821 -1732 989 -80
18 -302 50 -400 57 -49 4 -674 7 -1387 8 -1151 1 -1298 0 -1299 -14z"/>
<path d="M12190 6089 c-158 -17 -273 -102 -316 -231 -25 -77 -16 -188 21 -257
47 -85 112 -130 285 -196 124 -47 183 -79 214 -115 73 -87 35 -200 -76 -231
-72 -19 -230 -7 -318 25 -41 15 -82 28 -90 29 -10 1 -24 -23 -42 -73 -15 -41
-27 -81 -27 -87 -1 -19 64 -48 164 -73 69 -18 117 -23 205 -23 239 1 377 69
431 213 17 45 20 71 17 145 -9 187 -76 257 -352 365 -60 24 -127 57 -150 74
-99 76 -79 205 38 237 58 16 189 5 261 -21 33 -12 67 -24 75 -26 13 -4 40 52
77 162 5 14 -75 49 -154 68 -74 19 -180 25 -263 15z"/>
<path d="M502 6069 c-121 -14 -108 57 -107 -606 l0 -578 113 -3 112 -3 0 221
c0 121 3 220 8 221 4 0 42 2 84 3 l77 3 53 -71 c48 -65 179 -270 220 -345 l17
-31 121 0 c90 0 120 3 120 13 0 31 -160 293 -256 418 l-43 56 49 23 c97 46
166 142 178 252 25 216 -73 354 -293 414 -70 19 -338 27 -453 13z m378 -199
c98 -26 145 -91 138 -190 -8 -117 -71 -158 -259 -168 -65 -4 -123 -6 -129 -4
-6 2 -10 73 -10 187 0 183 0 184 23 187 44 7 194 0 237 -12z"/>
<path d="M2477 6062 c-2 -4 -3 -270 -3 -592 l1 -585 403 -3 402 -2 0 95 0 95
-290 0 -290 0 0 170 0 170 240 0 240 0 0 93 0 93 -232 -1 c-151 0 -235 4 -242
11 -7 7 -10 58 -8 142 l3 132 270 0 269 0 0 95 0 95 -380 0 c-208 0 -381 -4
-383 -8z"/>
<path d="M4799 6003 c-72 -157 -184 -427 -254 -609 -72 -186 -185 -498 -185
-509 0 -3 51 -5 114 -5 l114 0 41 115 c22 64 44 127 47 140 l6 25 248 0 247 0
22 -62 c11 -35 33 -97 49 -138 l28 -75 121 -3 121 -3 -48 133 c-113 316 -278
728 -393 981 l-36 77 -105 0 -106 0 -31 -67z m223 -403 c22 -58 53 -140 69
-182 l28 -78 -185 0 -186 0 6 26 c7 27 127 341 158 414 l20 45 24 -60 c14 -33
43 -107 66 -165z"/>
<path d="M6650 5475 l0 -595 375 0 375 0 0 95 0 95 -265 0 -265 0 0 500 0 500
-110 0 -110 0 0 -595z"/>
<path d="M9937 6063 c-2 -5 -3 -271 -3 -593 l1 -585 403 -3 402 -2 0 95 0 95
-290 0 -290 0 0 38 c-1 63 -1 276 -1 290 1 9 56 12 241 12 l240 0 0 93 0 94
-231 -1 c-127 -1 -235 2 -241 5 -5 3 -9 66 -10 140 l0 134 271 3 272 2 -3 93
-3 92 -377 3 c-207 1 -379 -1 -381 -5z"/>
<path d="M13722 5972 l3 -97 175 0 175 0 3 -498 2 -497 110 0 110 0 2 497 3
498 178 0 c151 -1 178 2 181 15 2 8 3 51 2 95 l-1 80 -473 2 -473 3 3 -98z"/>
<path d="M16053 6058 c-17 -22 -152 -333 -233 -538 -64 -161 -150 -389 -226
-602 l-13 -38 117 0 117 0 49 140 48 140 245 -2 246 -3 50 -137 50 -138 119 0
c119 0 119 0 113 23 -4 12 -50 137 -102 277 -129 348 -197 515 -338 828 l-28
62 -102 0 c-70 0 -106 -4 -112 -12z m175 -408 c80 -205 112 -290 112 -301 0
-5 -83 -9 -185 -9 -102 0 -185 1 -185 3 0 4 111 295 150 395 19 45 37 79 40
75 4 -4 35 -78 68 -163z"/>
<path d="M17660 5972 l0 -98 178 1 177 0 3 -498 2 -497 110 0 110 0 0 498 0
497 182 0 183 0 1 90 c1 56 -3 93 -10 97 -6 4 -219 8 -473 8 l-463 0 0 -98z"/>
<path d="M19750 5475 l0 -595 405 0 405 0 0 95 0 95 -292 2 -292 3 -1 168 0
167 242 0 243 0 0 93 0 93 -239 -1 c-205 0 -240 2 -243 15 -3 13 -2 221 1 258
1 9 62 12 271 12 l271 0 -3 93 -3 92 -382 3 -383 2 0 -595z"/>
</g>
</svg>
