<svg id="Twitter" xmlns="http://www.w3.org/2000/svg" viewBox="0 0 70.32 70.32"><defs><style>.cls-1{fill:#fff;}.cls-1,.cls-2{fill-rule:evenodd;}.cls-2{fill:#231f20;}</style></defs><title>equal_housing</title><polygon class="cls-1" points="0 0 70.32 0 70.32 70.32 0 70.32 0 0 0 0"/><polygon class="cls-2" points="9.66 54.19 7.07 54.19 7.07 55.22 9.45 55.22 9.45 56.08 7.07 56.08 7.07 57.34 9.77 57.34 9.77 58.21 6.07 58.21 6.07 53.33 9.66 53.33 9.66 54.19 9.66 54.19"/><path class="cls-2" d="M727.11,135.21l0.49,0.46a1.19,1.19,0,0,1-.55.13c-0.55,0-1.33-.34-1.33-1.71s0.78-1.7,1.33-1.7,1.33,0.34,1.33,1.7a2.18,2.18,0,0,1-.22,1l-0.52-.48-0.52.55h0Zm2.3,1.13-0.53-.5a2.74,2.74,0,0,0,.51-1.74,2.35,2.35,0,1,0-2.34,2.57,2.52,2.52,0,0,0,1.25-.33l0.58,0.55,0.54-.55h0Z" transform="translate(-714.18 -78.32)"/><path class="cls-2" d="M734.19,134.83a1.72,1.72,0,0,1-2,1.83,2.09,2.09,0,0,1-1.55-.59,1.78,1.78,0,0,1-.38-1.18v-3.23h1v3.17a0.85,0.85,0,0,0,.87,1,0.84,0.84,0,0,0,1-.93v-3.21h1v3.17h0Z" transform="translate(-714.18 -78.32)"/><path class="cls-2" d="M736.92,132.75h0l0.6,1.93h-1.25l0.63-1.93h0Zm-0.9,2.77h1.8l0.31,1h1.11l-1.72-4.88h-1.18l-1.74,4.88h1.07l0.34-1h0Z" transform="translate(-714.18 -78.32)"/><polygon class="cls-2" points="26.88 57.33 29.31 57.33 29.31 58.21 25.86 58.21 25.86 53.33 26.88 53.33 26.88 57.33 26.88 57.33"/><polygon class="cls-2" points="33.17 56.02 33.17 58.21 32.16 58.21 32.16 53.33 33.17 53.33 33.17 55.18 35.08 55.18 35.08 53.33 36.09 53.33 36.09 58.21 35.08 58.21 35.08 56.02 33.17 56.02 33.17 56.02"/><path class="cls-2" d="M752.22,134.09c0-1.37.78-1.7,1.32-1.7s1.33,0.34,1.33,1.7-0.78,1.71-1.33,1.71-1.32-.34-1.32-1.71h0Zm-1,0a2.35,2.35,0,1,0,2.34-2.57,2.28,2.28,0,0,0-2.34,2.57h0Z" transform="translate(-714.18 -78.32)"/><path class="cls-2" d="M760.75,134.83a1.72,1.72,0,0,1-2,1.83,2.09,2.09,0,0,1-1.55-.59,1.77,1.77,0,0,1-.38-1.18v-3.23h1v3.17a0.85,0.85,0,0,0,.87,1,0.84,0.84,0,0,0,1-.93v-3.21h1v3.17h0Z" transform="translate(-714.18 -78.32)"/><path class="cls-2" d="M762.62,135a0.85,0.85,0,0,0,1,.79c0.48,0,1-.12,1-0.63s-0.37-.48-0.88-0.6l-0.52-.12c-0.79-.18-1.55-0.36-1.55-1.43,0-.54.29-1.5,1.88-1.5a1.66,1.66,0,0,1,1.9,1.58h-1a0.82,0.82,0,0,0-1-.73,0.72,0.72,0,0,0-.85.58,0.53,0.53,0,0,0,.51.51l1.19,0.29a1.33,1.33,0,0,1,1.28,1.31,1.71,1.71,0,0,1-1.92,1.6c-1.78,0-2.09-1-2.09-1.63h1Z" transform="translate(-714.18 -78.32)"/><polygon class="cls-2" points="53.33 58.21 52.31 58.21 52.31 53.33 53.33 53.33 53.33 58.21 53.33 58.21"/><polygon class="cls-2" points="57.4 53.33 58.35 53.33 58.35 58.21 57.33 58.21 55.34 54.73 55.33 54.73 55.33 58.21 54.38 58.21 54.38 53.33 55.45 53.33 57.38 56.73 57.4 56.73 57.4 53.33 57.4 53.33"/><path class="cls-2" d="M775.94,133.9h2v2.63H777.3l-0.1-.61a1.8,1.8,0,0,1-1.52.74,2.27,2.27,0,0,1-2.24-2.55,2.34,2.34,0,0,1,2.38-2.58,1.93,1.93,0,0,1,2.14,1.65h-1a1.07,1.07,0,0,0-1.07-.8c-0.73,0-1.4.5-1.4,1.75s0.73,1.68,1.42,1.68a1.2,1.2,0,0,0,1.18-1.07h-1.13V133.9h0Z" transform="translate(-714.18 -78.32)"/><path class="cls-2" d="M721,141.5c0-1.37.77-1.71,1.32-1.71s1.32,0.34,1.32,1.71-0.77,1.71-1.32,1.71-1.32-.34-1.32-1.71h0Zm-1,0a2.35,2.35,0,1,0,2.34-2.57A2.28,2.28,0,0,0,720,141.5h0Z" transform="translate(-714.18 -78.32)"/><path class="cls-2" d="M727.51,141.34v-1.44h0.81c0.63,0,.9.2,0.9,0.67a0.66,0.66,0,0,1-.76.76h-0.94Zm0,0.84h1.17a1.5,1.5,0,0,0,1.56-1.56,1.43,1.43,0,0,0-1.51-1.56h-2.23v4.88h1v-1.76h0Z" transform="translate(-714.18 -78.32)"/><path class="cls-2" d="M733,141.34v-1.44h0.81c0.63,0,.9.2,0.9,0.67a0.66,0.66,0,0,1-.76.76H733Zm0,0.84h1.17a1.5,1.5,0,0,0,1.56-1.56,1.43,1.43,0,0,0-1.52-1.56H732v4.88h1v-1.76h0Z" transform="translate(-714.18 -78.32)"/><path class="cls-2" d="M738.27,141.5c0-1.37.77-1.71,1.33-1.71s1.32,0.34,1.32,1.71-0.78,1.71-1.32,1.71-1.33-.34-1.33-1.71h0Zm-1,0a2.35,2.35,0,1,0,2.34-2.57,2.28,2.28,0,0,0-2.34,2.57h0Z" transform="translate(-714.18 -78.32)"/><path class="cls-2" d="M744.72,141.21v-1.31H746a0.61,0.61,0,0,1,.71.64,0.63,0.63,0,0,1-.79.67h-1.19Zm-1,2.73h1V142h1.05c0.76,0,.8.26,0.8,0.92a3.29,3.29,0,0,0,.11,1h1.13v-0.13c-0.22-.08-0.22-0.26-0.22-1,0-.91-0.22-1.06-0.62-1.24a1.16,1.16,0,0,0,.75-1.16,1.37,1.37,0,0,0-1.53-1.38h-2.47v4.88h0Z" transform="translate(-714.18 -78.32)"/><polygon class="cls-2" points="37.34 65.62 36.32 65.62 36.32 61.6 34.85 61.6 34.85 60.74 38.81 60.74 38.81 61.6 37.34 61.6 37.34 65.62 37.34 65.62"/><path class="cls-2" d="M758.46,142.24a1.72,1.72,0,0,1-2,1.84,2.1,2.1,0,0,1-1.55-.59,1.76,1.76,0,0,1-.38-1.18v-3.23h1v3.17a0.86,0.86,0,0,0,.87,1,0.84,0.84,0,0,0,1-.93v-3.21h1v3.17h0Z" transform="translate(-714.18 -78.32)"/><polygon class="cls-2" points="49.22 60.74 50.17 60.74 50.17 65.62 49.15 65.62 47.16 62.14 47.15 62.14 47.15 65.62 46.19 65.62 46.19 60.74 47.27 60.74 49.2 64.14 49.22 64.14 49.22 60.74 49.22 60.74"/><polygon class="cls-2" points="53.05 65.62 52.02 65.62 52.02 60.74 53.05 60.74 53.05 65.62 53.05 65.62"/><polygon class="cls-2" points="57.02 65.62 56.01 65.62 56.01 61.6 54.53 61.6 54.53 60.74 58.5 60.74 58.5 61.6 57.02 61.6 57.02 65.62 57.02 65.62"/><polygon class="cls-2" points="62.35 65.62 61.33 65.62 61.33 63.78 59.65 60.74 60.85 60.74 61.86 62.86 62.83 60.74 63.98 60.74 62.35 63.79 62.35 65.62 62.35 65.62"/><path class="cls-2" d="M749.09,80.82L716.24,97v7.6h3.68v22.8H778V104.6h4.42V97L749.09,80.82h0Zm21.82,39.72H727V99.7l22.07-11.28L770.91,99.7v20.84h0Z" transform="translate(-714.18 -78.32)"/><polygon class="cls-2" points="44.96 28.73 24.62 28.73 24.62 21.37 44.96 21.37 44.96 28.73 44.96 28.73"/><polygon class="cls-2" points="44.96 39.27 24.62 39.27 24.62 31.92 44.96 31.92 44.96 39.27 44.96 39.27"/></svg>