<svg id="Google_plus" data-name="Google plus" xmlns="http://www.w3.org/2000/svg" viewBox="0 0 51.86 50"><title>g+_be</title><path d="M419.86,89.5c-14.32,0-25.93,11.19-25.93,25s11.61,25,25.93,25,25.93-11.19,25.93-25S434.18,89.5,419.86,89.5ZM412.45,127a12.68,12.68,0,0,1-12.87-14c0.81-6.69,7.24-11.58,14.19-10.94a12.5,12.5,0,0,1,6.72,2.67,0.74,0.74,0,0,1,0,1.12l-2.38,2.2a0.81,0.81,0,0,1-1,0,7.53,7.53,0,0,0-4.65-1.49,7.9,7.9,0,1,0,0,15.79c4.28,0,6.33-2.49,7.07-4.37a0.77,0.77,0,0,0-.75-1h-5.53c-0.44,0-.24-0.33-0.24-0.76v-2.77c0-.42-0.2-0.47.24-0.47H424a0.68,0.68,0,0,1,.79.52,8.81,8.81,0,0,1,.1,1.35C424.9,122,419.93,127,412.45,127Zm27-11h-2.11c-0.44,0-.33.63-0.33,1.05v2a1.45,1.45,0,0,1-1.26.91h-2.13c-0.44,0-1.61-.49-1.61-0.91v-2c0-.42.47-1.05,0-1.05h-2.11c-0.44,0-.92-0.05-0.92-0.47v-2.05c0-.42.48-0.47,0.92-0.47H432c0.44,0,0-.63,0-1.05v-2c0-.42,1.18-0.91,1.61-0.91h2.13a1.45,1.45,0,0,1,1.26.91v2c0,0.42-.11,1.05.33,1.05h2.11c0.44,0,1.56.05,1.56,0.47v2.05C441,115.95,439.88,116,439.44,116Z" transform="translate(-393.93 -89.5)"/></svg>