<svg xmlns="http://www.w3.org/2000/svg" viewBox="0 0 250 250"><path d="M34.27 83.255l89.495-67.487 89.495 67.487a6.97 6.97 0 0 0 4.21 1.412 7 7 0 0 0 4.22-12.59L127.98 1.411a7 7 0 0 0-8.43 0L25.84 72.077a7 7 0 1 0 8.43 11.178z"/><path d="M243.083 242.45l-18.607-18.607V107.475a7 7 0 0 0-2.785-5.589L127.98 31.22a7 7 0 0 0-8.43 0l-93.71 70.666a7 7 0 0 0-2.785 5.589v118.977a7 7 0 0 0 7 7h156.653l32.686 32.686c1.367 1.367 3.159 2.05 4.95 2.05s3.583-.684 4.95-2.05l13.788-13.788a7 7 0 0 0 .001-9.9zM37.055 110.964l86.71-65.387 86.71 65.387v98.879l-29.647-29.648c11.482-21.637 8.128-49.144-10.072-67.345-10.813-10.813-25.188-16.767-40.48-16.767-15.291 0-29.667 5.955-40.48 16.767-22.32 22.321-22.32 58.64.001 80.96 10.813 10.813 25.188 16.767 40.479 16.767 9.531 0 18.706-2.315 26.884-6.676l15.549 15.549H37.055V110.964zm93.22 85.614c-11.552 0-22.412-4.499-30.58-12.667-16.862-16.862-16.862-44.299-.001-61.162 8.169-8.168 19.029-12.667 30.581-12.667 11.553 0 22.412 4.499 30.58 12.667 16.862 16.862 16.862 44.299 0 61.162-8.168 8.169-19.027 12.667-30.58 12.667zm38.489-.87a58.244 58.244 0 0 0 1.992-1.897 57.232 57.232 0 0 0 1.895-1.994l55.583 55.583-3.889 3.889-55.581-55.581z"/><path d="M157.065 170.22a7.002 7.002 0 0 0-9.9 0c-9.312 9.312-24.465 9.313-33.778 0a7 7 0 0 0-9.9 9.899c7.387 7.386 17.088 11.079 26.789 11.079 9.702 0 19.403-3.693 26.79-11.079a7 7 0 0 0-.001-9.899z"/></svg>
