<svg xmlns="http://www.w3.org/2000/svg" viewBox="0 0 50 50"><title>pinterest_be</title><path d="M25-.02a25 25 0 1 0 25 25 25 25 0 0 0-25-25zm1.91 30.57a4.06 4.06 0 0 1-3.47-1.8c-1.14 4.52-1.05 5.2-3.58 8.65l-.21.08-.14-.15c-.09-.95-.23-1.88-.23-2.82 0-3.07 1.41-7.5 2.1-10.47a5.87 5.87 0 0 1-.48-2.54c0-1.52 1.05-3.44 2.76-3.44a1.93 1.93 0 0 1 1.94 2.15c0 2-1.32 3.79-1.32 5.68a2.22 2.22 0 0 0 2.31 2.19c3.46 0 4.52-5 4.52-7.65 0-3.56-2.53-5.5-5.94-5.5a6.77 6.77 0 0 0-7 6.88c0 1.94 1.19 2.93 1.19 3.4s-.28 1.77-.78 1.77a1.48 1.48 0 0 1-.25 0c-2.15-.65-2.93-3.52-2.93-5.48 0-5.54 5.08-9 10.22-9 4.72 0 9 3.24 9 8.22 0 4.67-2.39 9.86-7.71 9.86z"/></svg>
