<svg xmlns="http://www.w3.org/2000/svg" viewBox="0 0 50 50"><title>podcast_be</title><path d="M25.04 0a25 25 0 1 0 25 25 25 25 0 0 0-25-25zm3.19 39.12a5.94 5.94 0 0 1-.14 1.09 3 3 0 0 1-2.92 2.51 2.8 2.8 0 0 1-3.19-2.31c-.27-1.49-.34-3-.48-4.48-.14-1.77-.27-3.6-.41-5.36a2.94 2.94 0 0 1 3.39-3.6 13.05 13.05 0 0 0 1.63 0 2.79 2.79 0 0 1 2.85 3.26c-.29 2.98-.49 5.97-.76 8.89zm-3.19-13.31a4 4 0 0 1-3.94-4 3.91 3.91 0 0 1 4-3.94 4 4 0 0 1 4 4 4 4 0 0 1-4.06 3.94zm5.91 2.24a7.84 7.84 0 0 0-1-11.27 7.83 7.83 0 0 0-10.25.34c-3.26 2.72-3.39 6.79-.68 11-.75.48-1.43 1-2.1 1.49-2.65-2.31-4.21-8.89 0-13.71a10.81 10.81 0 0 1 15.61-.61 10.38 10.38 0 0 1 .51 14.3c-.64-.52-1.38-1-2.13-1.54zm6 8.35c-.14.14-.27.2-.41.34a.14.14 0 0 1-.14.07c-.68-.54-1.43-1-2.1-1.56a14.39 14.39 0 0 0 1.22-20.91 14.45 14.45 0 1 0-19.82 21c-.68.48-1.36 1-2.1 1.56a15.3 15.3 0 0 1-4.35-6.18c-.14-.07-1.56-2.72-1.29-8.62.34-7.06 6.18-13 13-14.39a18.11 18.11 0 0 1 8.62.2c6.18 1.9 10.25 5.91 11.88 12.15s-.03 11.73-4.51 16.34z"/></svg>
