<svg xmlns="http://www.w3.org/2000/svg" viewBox="0 0 250 250"><title>pricetag</title><path d="M83.91 0s2 2.09 3.1 3.18l72.17 69.73a7.09 7.09 0 0 1 .53 9.59l-52.2 63c-1.26 1.52-6.09 7.35-5.83 7.34 3.59-.22 8.15-.74 10.45-3.51l52.2-63a13.12 13.12 0 0 0-1-17.73L92.33 0h-8.44z"/><path d="M95.38 71.14c-4.35-4.35-12.53-3.61-21.63-.51l21.73 21.73c5.79-6.42 6.21-14.86-.1-21.22zm-55.25-8.89c4.34 4.34 9.72 4.55 19.55 1.76L41.16 45.5c-4.35 5.15-5.27 12.5-1.03 16.75z"/><path d="M146.79 72.27L74.62 2.79A8.81 8.81 0 0 0 68.34.5H9.54C4.54.5 0 4.05 0 9.04v61.31a9.29 9.29 0 0 0 3.09 6.58l77.49 72.89a10.14 10.14 0 0 0 14.71-.9l52.23-63a10.06 10.06 0 0 0-.73-13.65zM16.48 25.12a9.2 9.2 0 1 1 9.2-9.2 9.2 9.2 0 0 1-9.2 9.2zm89.45 85.12L95.48 99.8c-13.77 11.69-28.77 9.73-27.62 3.21 1.24-6.83 11.38 2.06 23.69-7.14L68.06 72.38l-7.56 2.38c-8.16 2.59-18 2.7-24.83-4.14-7.56-7.56-7.14-20.38 1.35-29.28L26.68 31l3.72-3.72 10.45 10.45c13.25-10.76 25.55-7.14 22.45-.72-2.07 4.55-9.62-1.35-18.31 4.86l20.38 20.38 11.07-3.62C86 55.5 94.55 57.5 99.52 62.5c9.82 9.82 8.8 24.31-.1 33.83l10.23 10.17z"/></svg>
