<svg class="realtor-logo" xmlns="http://www.w3.org/2000/svg" viewBox="0 0 28.21 32.84"><defs></defs><title>realtor_logo</title><path class="cls-1" d="M727.67 46.17h.61a1.3 1.3 0 0 1 .93.21.94.94 0 0 1 .3.73.84.84 0 0 1-.91.84h-.4l1.26 2h.54l-1-1.66a1.17 1.17 0 0 0 1-1.23 1.36 1.36 0 0 0-.55-1.1 1.66 1.66 0 0 0-1-.24h-1.14V50h.41v-3.83z" transform="translate(-727.2 -17.24)"/><path class="cls-1" d="M4.74 30.42v-1.49h1.78v-.41h-2.2v4.24h2.2v-.41H4.74v-1.51h1.78v-.42H4.74z"/><path class="cls-1" d="M737.56 48.28H736l.79-2.13.81 2.13zM735.31 50l.51-1.33h1.88l.51 1.33h.45L737 45.75h-.5L734.87 50h.44z" transform="translate(-727.2 -17.24)"/><path class="cls-1" d="M14.57 32.76v-.41h-1.49v-3.83h-.42v4.24h1.91zM16.67 32.76v-3.83h.85v-.41H15.4v.41h.85v3.83h.42z"/><path class="cls-1" d="M745.61 47.85a2.16 2.16 0 0 0 2.15 2.23 2.12 2.12 0 0 0 1.62-.72 2.16 2.16 0 0 0 .56-1.52 2.13 2.13 0 0 0-.65-1.56 2.09 2.09 0 0 0-1.52-.62 2.07 2.07 0 0 0-1.5.61 2.17 2.17 0 0 0-.66 1.56zm.44 0a1.87 1.87 0 0 1 .65-1.38 1.64 1.64 0 0 1 1.07-.39 1.8 1.8 0 1 1-1.77 1.77zM751.76 46.17h.61a1.3 1.3 0 0 1 .93.21.94.94 0 0 1 .3.73.84.84 0 0 1-.91.84h-.4l1.26 2h.49l-1-1.66a1.17 1.17 0 0 0 1-1.23 1.36 1.36 0 0 0-.55-1.1 1.66 1.66 0 0 0-1-.24h-1.14V50h.41v-3.83zM727.2 17.24v27h27v-27h-27zm14.35 3.24h3a5.1 5.1 0 0 1 0 10.18h-3V20.48zm-2.92 20.36H731v-20.4h7.61v20.4zm2.92 0V30.72l10.56 10.15h-10.55zM754.65 45a.74.74 0 0 0-.54.22.78.78 0 0 0-.23.55.76.76 0 0 0 .23.54.75.75 0 0 0 .54.23.78.78 0 0 0 .55-.23.74.74 0 0 0 .22-.54.76.76 0 0 0-.77-.77zm.68.77a.65.65 0 0 1-.19.48.7.7 0 0 1-.49.2.69.69 0 0 1-.68-.68.69.69 0 0 1 .21-.49.66.66 0 0 1 .48-.2.68.68 0 0 1 .68.69zm-.66-.46h-.32v.88h.13v-.41h.21l.19.39h.12l-.2-.41a.23.23 0 0 0 .21-.23c0-.17-.12-.24-.37-.24zm0 .09c.17 0 .25 0 .25.16s-.08.15-.25.15h-.16v-.34h.16z" transform="translate(-727.2 -17.24)"/></svg>
