<svg id="Rss" xmlns="http://www.w3.org/2000/svg" viewBox="0 0 50 50"><title>rss_be</title><path d="M559.51,147a25,25,0,1,0,25,25A25,25,0,0,0,559.51,147Zm-9.09,37.5a3.41,3.41,0,1,1,3.41-3.41A3.41,3.41,0,0,1,550.42,184.49Zm12.2-.62a1,1,0,0,1-.83.13h-2.4a0.94,0.94,0,0,1-1.12-.79A11.25,11.25,0,0,0,548,173.11a1,1,0,0,1-1-1v-2.4a0.71,0.71,0,0,1,.38-0.62,1,1,0,0,1,.77-0.09h0.09a14.32,14.32,0,0,1,10,4.44,15.38,15.38,0,0,1,4.65,9.8A0.7,0.7,0,0,1,562.61,183.87Zm9.07,0a1,1,0,0,1-.82.11h-2.54a1,1,0,0,1-1.14-.82,20.22,20.22,0,0,0-19.13-19,1,1,0,0,1-1.07-1v-2.54a1.7,1.7,0,0,1,.36-1.06,1.49,1.49,0,0,1,.79-0.56h0.05c6.22,1,12.06,3.17,16.46,7.59A25,25,0,0,1,572,183.05,1.08,1.08,0,0,1,571.69,183.89Z" transform="translate(-534.51 -146.99)"/></svg>