<svg id="tulia" data-name="Layer 14" xmlns="http://www.w3.org/2000/svg" viewBox="0 0 50 50"><title>trulia_be</title><path d="M25.18 14.42a3.74 3.74 0 0 0-4 3.66 3.75 3.75 0 0 0 7.5 0 3.67 3.67 0 0 0-3.5-3.66z"/><path d="M24.97.03a25 25 0 1 0 25 25 25 25 0 0 0-25-25zm4.91 21.83c-.58 1.65-1.21 3.21-1.79 4.87a35.76 35.76 0 0 0-1 3.75 18.36 18.36 0 0 0-.36 2.68c0 .85-.13 1.61-.13 2.41 0 .58-.09 1.33-.09 1.91a.63.63 0 0 1-.31.58h-2.32a.63.63 0 0 1-.31-.58 11.93 11.93 0 0 0-.09-1.78c-.09-.85-.13-1.67-.22-2.48 0-1-.22-1.91-.36-2.89a15 15 0 0 0-.67-2.87c-.54-1.52-1.12-3-1.65-4.52-.18-.4-.36-.81-.49-1.21a8.7 8.7 0 0 1-.54-3.57 6.91 6.91 0 0 1 .76-3 5 5 0 0 1 2.63-2.37.09.09 0 0 1 .09 0h.13a7.37 7.37 0 0 1 1.61-.18 7.28 7.28 0 0 1 2 .31 4.9 4.9 0 0 1 2.9 2.46 6.9 6.9 0 0 1 .76 3 8.69 8.69 0 0 1-.52 3.45z"/></svg>
