<svg class="trulia-logo" data-name="Layer 1" xmlns="http://www.w3.org/2000/svg" viewBox="0 0 698.31 243.95"><defs></defs><title>trulia-full-logo</title><path class="cls-1" d="M347.3 114.34h-43.14v.74c0 25.17.74 51 .74 76.19a46 46 0 0 0 1.41 10.1c2.15 11.51 9.36 16.56 20.87 15.82a105.13 105.13 0 0 0 14.41-1.41c.74 6.46.74 12.92 1.41 19.38 0 .74-.74 2.15-1.41 2.15-12.92 3.56-25.92 5-38.84 1.41-13.66-4.31-20.12-14.41-23-27.33-1.41-6.46-2.9-12.25-2.9-18.71 0-25.92-.74-51.76-.74-77.67v-1.41h-21.56V92.06h21.53V85.6c0-7.2.74-14.41.74-21.53a5.84 5.84 0 0 1 1.41-2.9c8.61-2.9 19.38-5 26.58-7.87v38.84H348c-.7 7.86-.7 15-.7 22.2zM440.05 117.23c-22.28-3.56-38.84 11.51-42.4 29.48a98.58 98.58 0 0 0-.74 14.41c0 25.92.74 51 .74 76.93v5.72h-28.74V92.8h21.53V118c7.2-5 9.36-10.77 13.66-15.82 9.36-9.36 22.28-13.66 35.94-12.25.74 0 2.15.74 2.15 1.41v25.17a2.51 2.51 0 0 1-2.14.72zM591.76 243.77H563V218.6c0 3.56-7.87 7.2-12.25 10.77-18.71 14.41-48.86 15.07-66.83 1.41-10.77-7.87-16.56-19.38-18.71-31.63a119.16 119.16 0 0 1-2.15-22.28V92.06h28.07V169c0 7.87 1.41 15.82 2.9 23.69 2.15 10.77 8.61 18.71 19.38 22.28 24.43 7.87 49.6-10.77 49.6-36.68 0-28.74-.74-56.81-.74-85.55V92H591c.76 51.08.76 101.42.76 151.77zM642.11 243.77h-28.74V20.92h28.74v222.85zM692.38 243.77h-28.74V92.8h28.74v151zM675.15 66.22c-10.77 0-18-7.2-18-18.71 0-8.61 7.2-18 20.12-17.23 8.61.74 17.23 8.61 16.56 18-.71 10.72-7.91 17.94-18.68 17.94zM828.28 148.87c0-7.87 0-15.07-1.41-22.28-4.31-21.53-18-34.53-39.51-38.84a90.87 90.87 0 0 0-41.66 1.41 86 86 0 0 0-25.17 10.77c2.15 6.46 4.31 12.25 6.46 18.71a14.93 14.93 0 0 0 3.56-2.15c15.07-7.87 30.89-10.77 47.45-7.87 16.56 2.15 27.33 19.38 23.69 34.53a152.17 152.17 0 0 0-18.71.74c-14.41.74-28.74 3.56-41.66 9.36-15.07 6.46-26.58 16.56-30.22 33.79-4.31 20.12 4.31 38.84 21.53 48.19a49.5 49.5 0 0 0 26.58 5 51.92 51.92 0 0 0 35.2-12.92c2.15-1.41 5.72-3.56 5.72-6.46v23h28.74v-5c.13-30.35.82-59.85-.59-89.98zM801.69 192c-2.9 15.07-12.92 23.69-27.33 27.33a28.5 28.5 0 0 1-17.23.74c-11.51-2.15-18-11.51-18-24.43 0-11.51 5.72-19.38 15.82-24.43 7.2-4.31 15.82-5.72 23.69-6.46a211 211 0 0 1 21.53-1.41h1.41c.11 9.96 1.52 19.32.11 28.66zM235.92 55.38c-.74-10.1-2.15-20.12-7.2-28.74C222.25 15.13 212.9 6.52 200.64 3a74.18 74.18 0 0 0-19.53-3 54.33 54.33 0 0 0-15.45 1.93 14.06 14.06 0 0 1-1.34.45 2.18 2.18 0 0 1-.74.22h-.15c-10.92 4.08-19.31 12.25-25.25 22.8-5 8.61-6.46 18.71-7.2 28.74-.74 12.25 1.41 23.69 5 34.53 1.41 3.94 3.12 7.87 4.83 11.73 5.27 14.48 10.92 28.66 16 43.37a162.92 162.92 0 0 1 6.46 27.33c1.41 9.36 2.9 18 3.56 27.33.74 7.87 1.41 15.07 2.15 23a112.81 112.81 0 0 1 .74 15.82 3 3 0 0 0 2.9 2.9h22.28a3 3 0 0 0 2.9-2.9c0-5.5.74-10.32.74-15.82 0-7.87.74-15.07 1.41-23 .74-8.61 1.41-17.23 3.56-25.92 2.9-12.25 5.72-24.43 10.1-35.94 5.72-15.82 11.51-30.89 17.23-46.71a89.45 89.45 0 0 0 5.08-34.48zM218.69 54a34.89 34.89 0 0 1-35.94 34.5A34.84 34.84 0 0 1 146.81 54c0-18.71 15.82-36.68 38.84-35.2 17.89 1.38 33.71 15.79 33.04 35.2z" transform="translate(-130.84 .03)"/></svg>
