<svg id="Twitter" xmlns="http://www.w3.org/2000/svg" viewBox="0 0 50 50"><title>twitter_be</title><path d="M559.51,92.38a25,25,0,1,0,25,25A25,25,0,0,0,559.51,92.38Zm12.23,18.73c0,0.27,0,.55,0,0.82,0,8.34-6.35,17.95-17.95,17.95a17.82,17.82,0,0,1-9.69-2.83,13.07,13.07,0,0,0,1.52.08,12.63,12.63,0,0,0,7.83-2.7,6.32,6.32,0,0,1-5.9-4.37,7.79,7.79,0,0,0,1.19.1,5.29,5.29,0,0,0,1.48-.21,6.47,6.47,0,0,1-5.24-6.19v-0.08a7.81,7.81,0,0,0,3,.8,6.22,6.22,0,0,1-2.72-5.25,6.3,6.3,0,0,1,.91-3.18,18,18,0,0,0,13,6.6,7.17,7.17,0,0,1-.14-1.45A6.32,6.32,0,0,1,570,106.87a12.42,12.42,0,0,0,4-1.52,6.29,6.29,0,0,1-2.77,3.48,12.64,12.64,0,0,0,3.63-1A13.55,13.55,0,0,1,571.73,111.11Z" transform="translate(-534.51 -92.38)"/></svg>