<svg id="yelp" xmlns="http://www.w3.org/2000/svg" viewBox="0 0 50 50"><title>yelp_be</title><path d="M24.97 0a25 25 0 1 0 25 25 25 25 0 0 0-25-25zm-9.26 29.69a3.57 3.57 0 0 1-.25-1.05 8.78 8.78 0 0 1 .45-4.05 1 1 0 0 1 .8-.45c.2 0 .4.1 4.45 1.75l1.15.5a1.07 1.07 0 0 1 .65 1.1.9.9 0 0 1-.7.9l-1.7.55a31.09 31.09 0 0 1-4.1 1.25.88.88 0 0 1-.72-.5zm9.23 3c0 4 .06 4.1 0 4.25a.78.78 0 0 1-.67.55 8.8 8.8 0 0 1-4.79-1.8 1.16 1.16 0 0 1-.24-.5.74.74 0 0 1 .05-.35c.05-.2.2-.35 3-3.7l.85-1a1.06 1.06 0 0 1 1.19-.3 1 1 0 0 1 .64 1v1.85zm-.53-8.25c-.2.05-.8.25-1.6-1-5.15-8.1-5.3-8.35-5.3-8.35a.92.92 0 0 1 .25-.85c.75-.8 5-2 6.05-1.7a.93.93 0 0 1 .7.65c0 .35.55 7.9.65 9.6.08 1.43-.52 1.59-.72 1.64zm2.65.4l1.05-1.45a31.08 31.08 0 0 1 2.55-3.4.48.48 0 0 1 .66 0 7.75 7.75 0 0 1 2.61 4.2 1 1 0 0 1-.11.9 38.28 38.28 0 0 1-4.62 1.2 7.42 7.42 0 0 0-1.27.3v-.05a1.23 1.23 0 0 1-1-.5 1.05 1.05 0 0 1 .16-1.21zm4.3 10.75a.84.84 0 0 1-.9-.1 35.66 35.66 0 0 1-2.55-4l-.65-1.1a1.14 1.14 0 0 1 .1-1.3 1 1 0 0 1 1.15-.35l1.65.55c3.75 1.25 3.9 1.25 4.05 1.4a.88.88 0 0 1 .3.85 8.18 8.18 0 0 1-3.12 4.05z"/></svg>
