<svg id="zillow" xmlns="http://www.w3.org/2000/svg" viewBox="0 0 50 50"><title>zillow_be</title><path d="M24.97 0a25 25 0 1 0 25 25 25 25 0 0 0-25-25zm1.47 12.5c1 .44 4.5 2.88 5.81 3.75a77.08 77.08 0 0 0-15.35 2.97c2.75-2 7.82-5.91 9.57-6.72zm-14 11.06a88.86 88.86 0 0 1 14.06-4.12S15.31 29.69 12.19 32.82l2.56-6.87a45.26 45.26 0 0 0-5.62 1zm19.69 9.31c-9.81.56-20.37 4.19-21.62 4.63l1.31-3.69a66.65 66.65 0 0 1 21.75-5.25c-.17.82-1.23 3.5-1.42 4.32zm3.44-9.81s-.44 1-.94 2.38a58.41 58.41 0 0 0-13 2.56c1.5-1.37 11.38-11.19 11.38-11.19 3.88 2.56 7.81 5.81 7.81 5.81z"/></svg>
