<svg xmlns="http://www.w3.org/2000/svg" viewBox="0 0 250 250"><path d="M209.052 44.633H161.75c-.254-9.474-3.452-18.695-9.391-26.499C143.59 6.61 130.254 0 115.772 0S87.953 6.61 79.183 18.134c-5.938 7.804-9.136 17.025-9.391 26.499H22.491a7 7 0 0 0-7 7v172.911a7 7 0 0 0 7 7h186.562a7 7 0 0 0 7-7V51.633a7 7 0 0 0-7.001-7zM115.772 14c10.073 0 19.348 4.597 25.447 12.612 6.011 7.898 8 17.883 5.488 27.462l-30.936 72.781-30.935-72.78c-2.512-9.579-.522-19.564 5.488-27.462C96.424 18.597 105.699 14 115.772 14zm-6.443 133.488a7.002 7.002 0 0 0 12.884 0l28.203-66.352h27.355v113.902h-124V81.137h27.355l28.203 66.351zm92.723 70.055H29.491V58.633h42.107c.054.158.099.318.164.472l3.414 8.032H46.772a7 7 0 0 0-7 7v127.902a7 7 0 0 0 7 7h138a7 7 0 0 0 7-7V74.137a7 7 0 0 0-7-7h-28.404l3.414-8.032c.065-.153.11-.314.164-.472h42.107v158.91z"/></svg>
