<?xml version="1.0" encoding="UTF-8" standalone="no"?>
<!-- Created with Inkscape (http://www.inkscape.org/) -->

<svg
   xmlns:dc="http://purl.org/dc/elements/1.1/"
   xmlns:cc="http://creativecommons.org/ns#"
   xmlns:rdf="http://www.w3.org/1999/02/22-rdf-syntax-ns#"
   xmlns:svg="http://www.w3.org/2000/svg"
   xmlns="http://www.w3.org/2000/svg"
   xmlns:sodipodi="http://sodipodi.sourceforge.net/DTD/sodipodi-0.dtd"
   xmlns:inkscape="http://www.inkscape.org/namespaces/inkscape"
   id="svg2"
   version="1.1"
   inkscape:version="0.91 r13725"
   xml:space="preserve"
   width="1622.5"
   height="1022.5"
   viewBox="0 0 1622.5 1022.5"
   sodipodi:docname="EnriqueMailBanner.svg"><metadata
     id="metadata8"><rdf:RDF><cc:Work
         rdf:about=""><dc:format>image/svg+xml</dc:format><dc:type
           rdf:resource="http://purl.org/dc/dcmitype/StillImage" /><dc:title></dc:title></cc:Work></rdf:RDF></metadata><defs
     id="defs6"><clipPath
       clipPathUnits="userSpaceOnUse"
       id="clipPath16"><path
         d="m 0,0 1298,0 0,818 L 0,818 0,0 Z"
         id="path18"
         inkscape:connector-curvature="0" /></clipPath><clipPath
       clipPathUnits="userSpaceOnUse"
       id="clipPath30"><path
         d="m 0,3.57 1298,0 L 1298,809 0,809 0,3.57 Z"
         id="path32"
         inkscape:connector-curvature="0" /></clipPath><clipPath
       clipPathUnits="userSpaceOnUse"
       id="clipPath44"><path
         d="M 0,818 1298,818 1298,0 0,0 0,818 Z"
         id="path46"
         inkscape:connector-curvature="0" /></clipPath><clipPath
       clipPathUnits="userSpaceOnUse"
       id="clipPath52"><path
         d="m -65.2523,1126.25 1860.1823,0 0,-1293.127 -1860.1823,0 0,1293.127 z"
         id="path54"
         inkscape:connector-curvature="0" /></clipPath><clipPath
       clipPathUnits="userSpaceOnUse"
       id="clipPath66"><path
         d="M 0,818 1298,818 1298,0 0,0 0,818 Z"
         id="path68"
         inkscape:connector-curvature="0" /></clipPath><clipPath
       clipPathUnits="userSpaceOnUse"
       id="clipPath74"><path
         d="m -65.2523,1126.25 1860.1823,0 0,-1293.127 -1860.1823,0 0,1293.127 z"
         id="path76"
         inkscape:connector-curvature="0" /></clipPath><clipPath
       clipPathUnits="userSpaceOnUse"
       id="clipPath96"><path
         d="M 0,818 1298,818 1298,0 0,0 0,818 Z"
         id="path98"
         inkscape:connector-curvature="0" /></clipPath></defs><sodipodi:namedview
     pagecolor="#ffffff"
     bordercolor="#666666"
     borderopacity="1"
     objecttolerance="10"
     gridtolerance="10"
     guidetolerance="10"
     inkscape:pageopacity="0"
     inkscape:pageshadow="2"
     inkscape:window-width="1920"
     inkscape:window-height="1051"
     id="namedview4"
     showgrid="false"
     inkscape:zoom="0.22126348"
     inkscape:cx="811.25"
     inkscape:cy="511.25"
     inkscape:window-x="0"
     inkscape:window-y="0"
     inkscape:window-maximized="1"
     inkscape:current-layer="g10" /><g
     id="g10"
     inkscape:groupmode="layer"
     inkscape:label="EnriqueMailBanner"
     transform="matrix(1.25,0,0,-1.25,0,1022.5)"><text
       transform="matrix(1,0,0,-1,326,305.3369)"
       style="font-variant:normal;font-weight:normal;font-stretch:normal;font-size:44.93429947px;font-family:Lato;-inkscape-font-specification:Lato-Regular;writing-mode:lr-tb;fill:#ffffff;fill-opacity:1;fill-rule:nonzero;stroke:none"
       id="text84"><tspan
         x="0 23.81518 37.610008 60.706238 74.501068 105.28107 141.13864 175.10896 183.78128 211.28108 241.8364 264.93265 288.02887 314.13568 342.39935 351.07169 380.00937 406.11621 436.67154 459.76776 468.44006 494.54691 518.36206 541.90765 569.49731 596.00854 622.11536"
         y="0"
         sodipodi:role="line"
         id="tspan86">SILICON VALLEY REAL ESTATE </tspan></text>
<text
       transform="matrix(1,0,0,-1,207.7881,196.6826)"
       style="font-variant:normal;font-weight:bold;font-stretch:normal;font-size:135.17860413px;font-family:Lato;-inkscape-font-specification:Lato-Bold;writing-mode:lr-tb;fill:#25b7cb;fill-opacity:1;fill-rule:nonzero;stroke:none"
       id="text88"><tspan
         x="0 104.08752 154.64432 263.73346 349.16632 465.28473 499.48492 595.59692 668.18781 784.30621 890.15106"
         y="0"
         sodipodi:role="line"
         id="tspan90">VIDEO BLOG </tspan></text>
<g
       id="g92"><g
         id="g94"
         clip-path="url(#clipPath96)"><g
           id="g100"
           transform="translate(485.0737,594.6421)"><path
             d="m 0,0 0,-69.749 28.92,0 c 6.447,0.059 12.744,1.612 18.892,4.656 11.699,5.789 17.549,15.877 17.549,30.263 0,14.385 -5.819,24.473 -17.459,30.263 C 41.693,-1.522 35.367,0 28.92,0 L 0,0 Z m 28.92,13.788 c 8.416,0 16.863,-2.09 25.339,-6.267 16.891,-8.178 25.339,-22.294 25.339,-42.351 0,-20.116 -8.448,-34.262 -25.339,-42.44 -8.476,-4.119 -16.923,-6.178 -25.339,-6.178 l -28.92,0 0,-35.546 -13.878,0 0,132.782 42.798,0 z"
             style="fill:#25b7cb;fill-opacity:1;fill-rule:nonzero;stroke:none"
             id="path102"
             inkscape:connector-curvature="0" /></g><g
           id="g104"
           transform="translate(672.1869,559.723)"><path
             d="m 0,0 c 0,-16.953 -6.12,-29.726 -18.355,-38.322 -7.642,-5.372 -15.252,-8.506 -22.832,-9.401 l 37.516,-36.352 -20.325,0 -37.247,36.084 -13.252,13.161 23.907,0 c 6.446,0 12.773,1.522 18.981,4.567 11.641,5.789 17.46,15.877 17.46,30.263 0,14.384 -5.819,24.472 -17.46,30.263 -6.149,3.044 -12.476,4.566 -18.981,4.566 l -29.189,0 0,-118.904 -13.878,0 0,132.693 9.401,0 33.666,0 c 8.416,0 16.862,-2.09 25.339,-6.267 C -8.417,34.172 0,20.056 0,0"
             style="fill:#25b7cb;fill-opacity:1;fill-rule:nonzero;stroke:none"
             id="path106"
             inkscape:connector-curvature="0" /></g><g
           id="g108"
           transform="translate(820.8591,525.1612)"><path
             d="m 0,0 c -5.113,-16.11 -13.61,-28.701 -25.497,-37.769 -12.245,-9.25 -25.914,-13.873 -41.01,-13.873 -18.9,0 -35.068,6.712 -48.499,20.138 -13.372,13.484 -20.059,29.714 -20.059,48.688 0,18.974 6.687,35.203 20.059,48.689 13.431,13.425 29.599,20.137 48.499,20.137 15.869,0 29.985,-4.893 42.347,-14.678 C -11.917,61.606 -3.655,48.3 0.624,31.415 l -14.977,0 c -3.804,12.291 -10.401,21.987 -19.792,29.088 -9.51,7.219 -20.297,10.829 -32.362,10.829 -14.919,0 -27.607,-5.28 -38.068,-15.841 -10.579,-10.562 -15.869,-23.331 -15.869,-38.307 0,-14.977 5.29,-27.716 15.869,-38.217 10.461,-10.621 23.149,-15.931 38.068,-15.931 9.45,0 18.334,2.446 26.656,7.339 8.024,4.654 13.788,9.815 17.296,15.484 l -68.469,0 0,14.141 L 0,0 Z"
             style="fill:#25b7cb;fill-opacity:1;fill-rule:nonzero;stroke:none"
             id="path110"
             inkscape:connector-curvature="0" /></g><g
           id="g112"
           transform="translate(475.4803,429.0645)"><path
             d="M 0,0 1.91,0 C 5.157,0 7.25,0.348 7.25,3.927 7.25,6.763 3.658,6.794 1.314,6.745 0.613,6.73 0.107,6.621 0,6.59 L 0,0 Z m -3.685,9.42 c 0.985,0.31 3.526,0.638 5.367,0.638 2.854,0 9.425,-0.527 9.425,-5.823 0,-4.259 -1.852,-5.774 -4.029,-6.511 0,0 1.162,-1.404 2.191,-2.997 1.447,-2.239 2.96,-5.076 3.211,-5.542 l -4.21,0.093 c -0.337,0.583 -4.783,7.455 -5.112,7.784 l -3.098,-0.071 0.059,-7.806 -3.804,0 0,20.235 z"
             style="fill:#ffffff;fill-opacity:1;fill-rule:nonzero;stroke:none"
             id="path114"
             inkscape:connector-curvature="0" /></g><g
           id="g116"
           transform="translate(520.1907,427.4918)"><path
             d="m 0,0 -8.436,0 0.047,-6.009 10.09,0 -0.021,-3.219 -13.84,0.015 -0.026,20.497 13.178,-0.015 0,-3.073 -9.428,0 0,-5.062 L 0,3.134 0,0 Z"
             style="fill:#ffffff;fill-opacity:1;fill-rule:nonzero;stroke:none"
             id="path118"
             inkscape:connector-curvature="0" /></g><g
           id="g120"
           transform="translate(554.0945,426.1512)"><path
             d="M 0,0 C 0,0 -2.982,7.45 -3.289,8.646 L -6.752,-0.039 0,0 Z m -7.711,-2.943 -1.793,-4.984 -3.672,0 3.451,9.726 4.729,10.967 3.526,-0.013 4.545,-10.724 3.764,-9.956 -4.17,0 -1.682,4.984 -8.698,0 z"
             style="fill:#ffffff;fill-opacity:1;fill-rule:nonzero;stroke:none"
             id="path122"
             inkscape:connector-curvature="0" /></g><g
           id="g124"
           transform="translate(580.7936,438.8913)"><path
             d="m 0,0 3.64,0 0,-17.444 9.234,0 0,-3.236 L 0,-20.68 0,0 Z"
             style="fill:#ffffff;fill-opacity:1;fill-rule:nonzero;stroke:none"
             id="path126"
             inkscape:connector-curvature="0" /></g><g
           id="g128"
           transform="translate(672.1358,422.4069)"><path
             d="m 0,0 c 1.197,-0.736 3.021,-1.318 4.863,-1.318 2.731,0 4.326,0.417 4.326,2.503 0,1.934 -1.133,2.74 -3.956,3.728 -3.995,1.398 -6.032,3.196 -6.032,6.112 0,3.221 3.299,5.747 7.319,5.747 2.116,0 4.742,-0.752 5.663,-1.273 l -1.118,-2.956 c -0.675,0.368 -2.766,1.158 -4.637,1.158 -2.824,0 -3.232,-0.825 -3.232,-2.237 0,-1.933 0.593,-2.41 3.446,-3.515 3.497,-1.35 6.5,-1.798 6.5,-6.549 0,-4.835 -3.585,-5.952 -8.464,-5.952 -1.994,0 -4.732,0.82 -5.836,1.556 L 0,0 Z"
             style="fill:#ffffff;fill-opacity:1;fill-rule:nonzero;stroke:none"
             id="path130"
             inkscape:connector-curvature="0" /></g><g
           id="g132"
           transform="translate(710.0999,435.6506)"><path
             d="m 0,0 -6.297,-0.04 0,3.261 16.509,0 0,-3.261 -6.499,0 0,-17.324 L 0,-17.324 0,0 Z"
             style="fill:#ffffff;fill-opacity:1;fill-rule:nonzero;stroke:none"
             id="path134"
             inkscape:connector-curvature="0" /></g><g
           id="g136"
           transform="translate(721.5073,417.8534)"><path
             d="M 0,0 -2.762,0"
             style="fill:#ffffff;fill-opacity:1;fill-rule:nonzero;stroke:none"
             id="path138"
             inkscape:connector-curvature="0" /></g><g
           id="g140"
           transform="translate(650.0798,427.4918)"><path
             d="m 0,0 -8.436,0 0.047,-6.009 10.09,0 -0.021,-3.219 -13.84,0.015 -0.026,20.497 13.178,-0.015 0,-3.073 -9.428,0 0,-5.062 L 0,3.134 0,0 Z"
             style="fill:#ffffff;fill-opacity:1;fill-rule:nonzero;stroke:none"
             id="path142"
             inkscape:connector-curvature="0" /></g><g
           id="g144"
           transform="translate(749.5685,426.1512)"><path
             d="M 0,0 C 0,0 -2.982,7.45 -3.289,8.646 L -6.752,-0.039 0,0 Z m -7.711,-2.943 -1.793,-4.984 -3.672,0 3.451,9.726 4.729,10.967 3.526,-0.013 4.545,-10.724 3.764,-9.956 -4.17,0 -1.682,4.984 -8.698,0 z"
             style="fill:#ffffff;fill-opacity:1;fill-rule:nonzero;stroke:none"
             id="path146"
             inkscape:connector-curvature="0" /></g><g
           id="g148"
           transform="translate(778.7369,435.6506)"><path
             d="m 0,0 -6.297,-0.04 0,3.261 16.509,0 0,-3.261 -6.499,0 0,-17.324 L 0,-17.324 0,0 Z"
             style="fill:#ffffff;fill-opacity:1;fill-rule:nonzero;stroke:none"
             id="path150"
             inkscape:connector-curvature="0" /></g><g
           id="g152"
           transform="translate(821.5266,427.4918)"><path
             d="m 0,0 -8.436,0 0.047,-6.009 10.09,0 -0.021,-3.219 -13.84,0.015 -0.026,20.497 13.178,-0.015 0,-3.073 -9.428,0 0,-5.062 L 0,3.134 0,0 Z"
             style="fill:#ffffff;fill-opacity:1;fill-rule:nonzero;stroke:none"
             id="path154"
             inkscape:connector-curvature="0" /></g></g></g></g></svg>